# xmcd
#
# Track frame offsets:
#	150
#	10868
#	23794
#	34672
#	48692
#	62402
#	74325
#	84141
#	95099
#	107830
#	120526
#	129377
#	143731
#	162610
#	175289
#	185491
#	204220
#	217623
#	229922
#	243405
#	259229
#
# Disc length: 3597 seconds
#
# Revision: 0
# Processed by: cddbd v1.5.2PL0 Copyright (c) Steve Scherf et al.
# Submitted via: audiograbber 1.83.01
#
DISCID=1f0e0b15
DTITLE=Alan Ladd - Sing Country - CD 2: Jim Reeves Liefdes Liedjies
DYEAR=2007
DGENRE=Country
TTITLE0=Adios Amigo
TTITLE1=Distant Drums
TTITLE2=Waltzing On Top Of The World
TTITLE3=Guilty
TTITLE4=Have I Told You Lately
TTITLE5=I Love You Because
TTITLE6=Am I That Easy To Forget
TTITLE7=Ver In Die Ou Kalahari
TTITLE8=From A Jack To A King
TTITLE9=Four Walls
TTITLE10=When Two Worlds Collide
TTITLE11=Oklahoma Hills
TTITLE12=I Fall To Pieces
TTITLE13=Mona Lisa
TTITLE14=Dear Hearts And Gentle People
TTITLE15=Danny Boy
TTITLE16=Blonde Matroos
TTITLE17=Welcome To My World
TTITLE18=Roly Poly
TTITLE19=Silver Haired Daddy Of Mine
TTITLE20=Snowflake
EXTD=
EXTT0=
EXTT1=
EXTT2=
EXTT3=
EXTT4=
EXTT5=
EXTT6=
EXTT7=
EXTT8=
EXTT9=
EXTT10=
EXTT11=
EXTT12=
EXTT13=
EXTT14=
EXTT15=
EXTT16=
EXTT17=
EXTT18=
EXTT19=
EXTT20=
PLAYORDER=
